<svg data-v-423bf9ae="" xmlns="http://www.w3.org/2000/svg" viewBox="0 0 362 97" class="iconLeft"><defs data-v-423bf9ae=""><linearGradient data-v-423bf9ae="" gradientTransform="rotate(25)" id="4109a97a-914e-4a05-ae13-329dcc2b226e" x1="0%" y1="0%" x2="100%" y2="0%"><stop data-v-423bf9ae="" offset="0%" style="stop-color: rgb(0, 0, 0); stop-opacity: 1;"></stop><stop data-v-423bf9ae="" offset="100%" style="stop-color: rgb(0, 0, 0); stop-opacity: 1;"></stop></linearGradient></defs><g data-v-423bf9ae="" id="970c9eb8-fac6-4b1e-98f9-ed662119d8c3" fill="url(#4109a97a-914e-4a05-ae13-329dcc2b226e)" transform="matrix(4.739336550013062,0,0,4.739336550013062,113.40535257937601,1.0831747495964663)"><path d="M8.65 7.07L8.65 7.07Q8.46 6.55 8.04 6.19Q7.62 5.82 7.08 5.62Q6.54 5.42 5.94 5.37Q5.33 5.32 4.80 5.43L4.80 5.43Q4.23 5.56 3.77 5.86Q3.32 6.16 3.00 6.59Q2.69 7.01 2.52 7.53Q2.35 8.05 2.35 8.61L2.35 8.61Q2.35 9.66 2.80 10.40Q3.25 11.13 3.93 11.52Q4.62 11.91 5.43 11.94Q6.24 11.97 6.97 11.63L6.97 11.63Q7.60 11.35 8.39 10.54L8.39 10.54L9.59 11.84Q9.11 12.33 8.67 12.68Q8.22 13.03 7.74 13.26Q7.25 13.48 6.71 13.59Q6.17 13.71 5.54 13.71L5.54 13.71Q4.41 13.71 3.54 13.34Q2.67 12.98 2.06 12.37Q1.44 11.76 1.08 10.97Q0.73 10.18 0.62 9.32Q0.50 8.47 0.66 7.62Q0.81 6.78 1.22 6.05L1.22 6.05Q1.61 5.36 2.11 4.89Q2.60 4.42 3.19 4.14Q3.77 3.85 4.42 3.72Q5.07 3.60 5.77 3.58L5.77 3.58Q6.26 3.58 6.80 3.68Q7.34 3.77 7.82 3.96Q8.30 4.14 8.68 4.44Q9.06 4.73 9.21 5.12Q9.37 5.52 9.25 6.00Q9.14 6.48 8.65 7.07ZM13.43 16.24L13.43 16.24Q12.74 16.24 12.16 16.06Q11.58 15.88 11.20 15.52Q10.82 15.16 10.69 14.62Q10.56 14.07 10.77 13.36L10.77 13.36Q10.93 13.66 11.21 13.90Q11.48 14.13 11.82 14.28Q12.15 14.43 12.52 14.51Q12.88 14.59 13.23 14.57L13.23 14.57Q14.24 14.53 14.77 14.05Q15.30 13.57 15.30 12.54L15.30 12.54Q15.20 12.81 14.97 13.01Q14.73 13.20 14.43 13.34Q14.14 13.47 13.83 13.54Q13.52 13.61 13.27 13.62L13.27 13.62Q12.74 13.65 12.22 13.48Q11.70 13.31 11.28 12.88L11.28 12.88Q10.65 12.24 10.65 11.00L10.65 11.00L10.65 6.26L12.43 6.26Q12.43 6.50 12.43 6.90Q12.42 7.29 12.42 7.78Q12.42 8.26 12.42 8.77Q12.42 9.28 12.43 9.74Q12.45 10.21 12.47 10.56Q12.50 10.92 12.54 11.09L12.54 11.09Q12.66 11.54 12.96 11.76Q13.27 11.98 13.64 11.98L13.64 11.98Q13.87 11.98 14.08 11.91Q14.29 11.83 14.46 11.69Q14.62 11.55 14.71 11.38Q14.81 11.20 14.81 10.99L14.81 10.99Q15.16 11.09 15.30 11.48L15.30 11.48L15.30 6.26L17.11 6.26L17.11 12.64Q17.11 14.29 16.18 15.27Q15.25 16.24 13.43 16.24ZM22.11 8.50L22.11 8.50Q21.99 8.23 21.80 8.07Q21.60 7.91 21.37 7.83Q21.14 7.74 20.92 7.74Q20.71 7.73 20.57 7.78L20.57 7.78Q20.31 7.87 20.24 8.07Q20.16 8.27 20.31 8.46L20.31 8.46Q20.44 8.60 20.71 8.73Q20.99 8.86 21.32 9.02Q21.66 9.18 22.02 9.39Q22.37 9.59 22.67 9.87Q22.96 10.15 23.15 10.53Q23.34 10.91 23.34 11.42L23.34 11.42Q23.34 12.03 23.07 12.48Q22.81 12.94 22.37 13.22Q21.92 13.50 21.37 13.60Q20.82 13.71 20.25 13.62Q19.68 13.54 19.15 13.24Q18.62 12.94 18.23 12.42L18.23 12.42L19.35 11.21Q19.70 11.63 20.08 11.82Q20.47 12.00 20.80 12.02Q21.13 12.04 21.35 11.92Q21.57 11.80 21.62 11.60Q21.67 11.40 21.50 11.15Q21.34 10.91 20.86 10.67L20.86 10.67Q20.41 10.44 19.98 10.21Q19.56 9.97 19.23 9.67Q18.90 9.38 18.70 9.02Q18.49 8.65 18.49 8.16L18.49 8.16Q18.49 7.66 18.70 7.27Q18.91 6.87 19.26 6.61Q19.61 6.34 20.06 6.22Q20.51 6.09 20.99 6.10L20.99 6.10Q21.80 6.15 22.23 6.46Q22.65 6.78 22.76 7.18Q22.86 7.57 22.69 7.95Q22.51 8.33 22.11 8.50ZM25.21 6.33L25.21 5.15Q25.21 4.76 25.36 4.49Q25.51 4.21 25.75 4.05Q26.00 3.88 26.32 3.80Q26.64 3.72 26.98 3.72L26.98 3.72L26.98 6.33L28.60 6.33Q28.60 6.61 28.55 6.87Q28.50 7.14 28.36 7.36Q28.22 7.57 27.99 7.71Q27.75 7.84 27.37 7.84L27.37 7.84L26.98 7.84L26.98 11.80Q26.98 12.03 27.15 12.12Q27.31 12.21 27.54 12.20Q27.76 12.19 27.99 12.10Q28.21 12.00 28.31 11.83L28.31 11.83Q28.49 12.29 28.33 12.65Q28.17 13.01 27.82 13.22Q27.48 13.44 27.03 13.50Q26.57 13.57 26.17 13.43Q25.77 13.30 25.49 12.96Q25.21 12.61 25.21 12.03L25.21 12.03L25.21 7.84L24.32 7.84L24.32 6.33L25.21 6.33ZM34.66 10.72L34.66 10.72Q33.91 10.92 33.28 10.86Q32.66 10.81 32.26 10.56Q31.86 10.32 31.73 9.91Q31.60 9.49 31.81 8.97L31.81 8.97Q32.24 9.34 32.82 9.37Q33.39 9.41 33.92 9.35L33.92 9.35Q34.37 9.31 34.60 9.16Q34.83 9.00 34.89 8.80Q34.94 8.60 34.85 8.37Q34.75 8.15 34.53 7.97Q34.31 7.78 34.00 7.67Q33.68 7.56 33.31 7.57L33.31 7.57Q32.90 7.60 32.54 7.77Q32.17 7.94 31.89 8.23Q31.61 8.53 31.44 8.92Q31.28 9.31 31.26 9.79L31.26 9.79Q31.25 10.18 31.35 10.56Q31.46 10.93 31.67 11.25Q31.88 11.56 32.17 11.78Q32.47 12.00 32.84 12.05L32.84 12.05Q33.38 12.15 33.94 11.98Q34.50 11.82 34.93 11.37L34.93 11.37L36.40 12.08Q35.83 12.94 35.04 13.31Q34.26 13.68 33.25 13.68L33.25 13.68Q32.31 13.68 31.60 13.35Q30.90 13.02 30.43 12.47Q29.96 11.93 29.73 11.24Q29.50 10.54 29.51 9.82Q29.53 9.10 29.79 8.41Q30.06 7.71 30.56 7.18L30.56 7.18Q31.12 6.58 31.87 6.33Q32.62 6.08 33.40 6.08L33.40 6.08Q34.27 6.08 34.90 6.37Q35.53 6.66 35.92 7.12Q36.32 7.57 36.44 8.13Q36.57 8.68 36.42 9.20Q36.27 9.72 35.84 10.13Q35.41 10.54 34.66 10.72ZM39.51 6.27L39.51 7.11Q39.62 6.86 39.85 6.68Q40.08 6.50 40.36 6.37Q40.64 6.24 40.94 6.17Q41.23 6.10 41.48 6.09L41.48 6.09Q42.01 6.06 42.53 6.24Q43.05 6.41 43.48 6.85L43.48 6.85Q44.11 7.50 44.11 8.74L44.11 8.74L44.11 13.52L42.32 13.52Q42.32 13.29 42.33 12.88Q42.34 12.47 42.34 11.99Q42.34 11.51 42.34 10.99Q42.34 10.47 42.32 10.01Q42.31 9.55 42.28 9.18Q42.25 8.82 42.21 8.65L42.21 8.65Q42.10 8.20 41.78 7.98Q41.47 7.76 41.10 7.76L41.10 7.76Q40.63 7.76 40.36 8.02Q40.10 8.27 40.10 8.69L40.10 8.69Q39.93 8.64 39.76 8.46Q39.59 8.29 39.51 8.09L39.51 8.09L39.51 8.47L39.51 13.52L37.70 13.52L37.70 6.27L39.51 6.27ZM50.46 10.72L50.46 10.72Q49.70 10.92 49.08 10.86Q48.45 10.81 48.05 10.56Q47.66 10.32 47.52 9.91Q47.39 9.49 47.60 8.97L47.60 8.97Q48.03 9.34 48.61 9.37Q49.18 9.41 49.71 9.35L49.71 9.35Q50.16 9.31 50.39 9.16Q50.62 9.00 50.68 8.80Q50.74 8.60 50.64 8.37Q50.54 8.15 50.32 7.97Q50.11 7.78 49.79 7.67Q49.48 7.56 49.10 7.57L49.10 7.57Q48.69 7.60 48.33 7.77Q47.96 7.94 47.68 8.23Q47.40 8.53 47.24 8.92Q47.07 9.31 47.05 9.79L47.05 9.79Q47.04 10.18 47.14 10.56Q47.25 10.93 47.46 11.25Q47.67 11.56 47.96 11.78Q48.26 12.00 48.64 12.05L48.64 12.05Q49.17 12.15 49.73 11.98Q50.29 11.82 50.72 11.37L50.72 11.37L52.19 12.08Q51.62 12.94 50.83 13.31Q50.05 13.68 49.04 13.68L49.04 13.68Q48.10 13.68 47.40 13.35Q46.69 13.02 46.22 12.47Q45.75 11.93 45.52 11.24Q45.29 10.54 45.30 9.82Q45.32 9.10 45.58 8.41Q45.85 7.71 46.35 7.18L46.35 7.18Q46.91 6.58 47.66 6.33Q48.41 6.08 49.20 6.08L49.20 6.08Q50.06 6.08 50.69 6.37Q51.32 6.66 51.72 7.12Q52.11 7.57 52.23 8.13Q52.36 8.68 52.21 9.20Q52.07 9.72 51.63 10.13Q51.20 10.54 50.46 10.72Z"></path></g><defs data-v-423bf9ae=""><linearGradient data-v-423bf9ae="" gradientTransform="rotate(25)" id="4ec95fed-704e-4789-886e-4df39502d7f2" x1="0%" y1="0%" x2="100%" y2="0%"><stop data-v-423bf9ae="" offset="0%" style="stop-color: rgb(255, 16, 208); stop-opacity: 1;"></stop><stop data-v-423bf9ae="" offset="100%" style="stop-color: rgb(255, 35, 47); stop-opacity: 1;"></stop></linearGradient></defs><g data-v-423bf9ae="" id="2bf142b8-2246-4430-a2be-0750e9b28448" transform="matrix(1.0333333333333334,0,0,1.0333333333333334,-0.0833333333333357,-0.0833333333333357)" stroke="none" fill="url(#4ec95fed-704e-4789-886e-4df39502d7f2)"><path d="M78.964 56.2a94 94 0 0 1-8.28 1.706 7.79 7.79 0 0 0-4.677-4.4c.083-1.985.126-4 .126-6 0-3.785-.147-7.506-.432-11.111a102 102 0 0 1 13.264 2.419q.057.435.108.874a7.743 7.743 0 0 0 .155 14.17q-.111 1.173-.264 2.342M47.5 83.486a71 71 0 0 1-9.271-.613c2.7 7.058 6.065 11.12 9.263 11.127h.021c2.493-.009 5.158-2.545 7.508-7.144a41 41 0 0 0 1.753-3.974 71 71 0 0 1-9.274.604M11.912 54.992A71.3 71.3 0 0 1 11.906 40C4.707 42.371 1 45.216 1 47.5c0 2.369 3.861 5.174 10.912 7.492m17.388 3.62a141 141 0 0 1-.433-11.112c0-2.005.043-4.016.126-6a7.78 7.78 0 0 1-4.676-4.4 93 93 0 0 0-8.281 1.705 67 67 0 0 0 0 17.39A102 102 0 0 0 29.3 58.612m52.975-8.092a3.788 3.788 0 1 0-3.788-3.788 3.79 3.79 0 0 0 3.788 3.788M62.554 17.2a102.5 102.5 0 0 1 2.766 15.168 113 113 0 0 1 12.943 2.183 60 60 0 0 0-1.911-7.216 7.728 7.728 0 0 1-8.687-8.683q-2.49-.83-5.111-1.452m9 2.453a3.788 3.788 0 1 0 3.788-3.788 3.79 3.79 0 0 0-3.787 3.792ZM61.246 12.87a64 64 0 0 1 7.926 2.112 8 8 0 0 1 .657-.758A32.34 32.34 0 0 0 56.506 2.905a39.7 39.7 0 0 1 4.642 9.673zM47.5 11.514a71 71 0 0 1 9.272.613C54.07 5.063 50.7 1 47.5 1c-2.5 0-5.167 2.537-7.52 7.144a41 41 0 0 0-1.754 3.974 71 71 0 0 1 9.274-.604m-8.7 20.113a166.041 166.041 0 0 1 22.5.343 93.5 93.5 0 0 0-3.1-15.632 66.8 66.8 0 0 0-21.4-.009A87 87 0 0 0 34.409 27a7.78 7.78 0 0 1 4.391 4.627m8.7 28.017c2.823 0 5.639-.076 8.4-.218a7.765 7.765 0 0 1 6.157-6.2c.077-1.9.117-3.814.117-5.728 0-4.036-.168-7.889-.477-11.53-4.361-.392-9.1-.614-14.2-.614-2.824 0-5.64.076-8.4.218a7.765 7.765 0 0 1-6.157 6.2c-.077 1.9-.117 3.814-.117 5.728 0 4.036.169 7.889.477 11.53 4.364.392 9.107.614 14.2.614M35.272 34.166a3.788 3.788 0 1 0-3.788 3.788 3.79 3.79 0 0 0 3.788-3.788M32.446 77.8a102.4 102.4 0 0 1-2.765-15.163 113 113 0 0 1-12.935-2.182 60 60 0 0 0 1.906 7.213 7.735 7.735 0 0 1 8.684 8.684 63 63 0 0 0 5.11 1.448m-9-2.453a3.788 3.788 0 1 0-3.788 3.787 3.793 3.793 0 0 0 3.788-3.791Zm10.308 6.783a64 64 0 0 1-7.926-2.112 8 8 0 0 1-.657.758A32.34 32.34 0 0 0 38.494 92.1a39.7 39.7 0 0 1-4.641-9.672zm13.746-2.6a67 67 0 0 0 10.7-.852A87 87 0 0 0 60.591 68a7.79 7.79 0 0 1-4.391-4.627 166.041 166.041 0 0 1-22.5-.343 93.5 93.5 0 0 0 3.1 15.632 66.6 66.6 0 0 0 10.7.866Zm16.016-14.908a3.788 3.788 0 1 0-3.788-3.788 3.793 3.793 0 0 0 3.788 3.788m19.633-10.195q-.028.285-.057.569C90.292 52.63 94 49.784 94 47.5c0-1.659-1.894-3.532-5.451-5.3a7.737 7.737 0 0 1-5.4 12.229Zm9.524-14.457c-1.965-5.528-6.059-10.665-11.9-14.8a8 8 0 0 1-.757.656 64.6 64.6 0 0 1 2.475 9.835 40.3 40.3 0 0 1 10.182 4.309M73.246 12.2a7.7 7.7 0 0 1 4.667.149 46.6 46.6 0 0 0-10.371-6.803 42 42 0 0 1 5.704 6.654m-39.489.653a49 49 0 0 1 2.7-6.512 29.5 29.5 0 0 1 2.07-3.481c-5.51 2.34-10.409 6.771-14.259 12.664a63 63 0 0 1 9.489-2.668ZM32.449 17.2a56.7 56.7 0 0 0-11.316 3.939 57.5 57.5 0 0 0-4.4 13.418c2.214-.518 4.577-.98 7.067-1.38a7.76 7.76 0 0 1 6.678-6.684 94 94 0 0 1 1.971-9.293M12.5 35.662a63.8 63.8 0 0 1 3.02-11.394C9.117 28.454 4.437 33.88 2.3 39.981a28 28 0 0 1 3.316-1.79 50 50 0 0 1 6.884-2.529M2.326 55.029c1.965 5.528 6.059 10.666 11.9 14.8a8 8 0 0 1 .758-.656 65 65 0 0 1-2.467-9.833 40.3 40.3 0 0 1-10.191-4.311M21.754 82.8a7.7 7.7 0 0 1-4.668-.15 46.6 46.6 0 0 0 10.372 6.807 42 42 0 0 1-5.704-6.657m48.956-3.316a63 63 0 0 1-9.467 2.66 48.6 48.6 0 0 1-2.7 6.512 29.5 29.5 0 0 1-2.057 3.463 31.36 31.36 0 0 0 12.319-9.954q.995-1.288 1.905-2.681m7.552-19.036c-2.214.518-4.576.98-7.066 1.38a7.76 7.76 0 0 1-6.678 6.684 95 95 0 0 1-1.969 9.3 56 56 0 0 0 11.31-3.944 57.4 57.4 0 0 0 4.403-13.42m4.231-1.109a64.3 64.3 0 0 1-3.021 11.379c.4-.259.787-.522 1.171-.791 5.992-4.2 10.109-9.338 12.061-14.908a28 28 0 0 1-3.317 1.79 50.4 50.4 0 0 1-6.894 2.53m.3-37.585a42 42 0 0 1 6.658 5.7 46.7 46.7 0 0 0-6.807-10.372 7.7 7.7 0 0 1 .149 4.667Zm-70.713.08a50.6 50.6 0 0 1 6.1-3.653 51 51 0 0 1 3.653-6.1 42.5 42.5 0 0 1 5.6-6.527A46.8 46.8 0 0 0 5.556 27.437a42.5 42.5 0 0 1 6.528-5.603Zm.12 51.412a42 42 0 0 1-6.657-5.7 46.6 46.6 0 0 0 6.807 10.372 7.7 7.7 0 0 1-.15-4.668Zm70.713-.08a51 51 0 0 1-6.1 3.655 49 49 0 0 1-4.874 7.761 41 41 0 0 1-4.4 4.874 46.8 46.8 0 0 0 21.907-21.895 42.5 42.5 0 0 1-6.53 5.605Z"></path></g></svg>